<?xml version="1.0" encoding="utf-8"?>
<!-- Generator: Adobe Illustrator 24.0.1, SVG Export Plug-In . SVG Version: 6.00 Build 0)  -->
<svg version="1.1" id="Ferris_Wizard" xmlns="http://www.w3.org/2000/svg" xmlns:xlink="http://www.w3.org/1999/xlink" x="0px"
	 y="0px" viewBox="0 0 1200 800" style="enable-background:new 0 0 1200 800;" xml:space="preserve">
<style type="text/css">
	.st0{opacity:0.2;}
	.st1{fill:#A52B00;}
	.st2{fill:#F74C00;}
	.st3{fill:#CCCCCC;}
	.st4{fill:#999999;}
	.st5{fill:#B3B3B3;}
	.st6{fill:#8C6239;}
	.st7{fill:#C7B299;}
	.st8{fill:#958573;}
	.st9{fill:#534741;}
	.st10{fill:#3E3531;}
	.st11{fill:#C69C6D;}
	.st12{fill:#42210B;}
	.st13{fill:#957552;}
	.st14{fill:#808080;}
	.st15{fill:#E6E6E6;}
	.st16{fill:#754C24;}
	.st17{fill:#FFFFFF;}
</style>
<path id="Shadow" class="st0" d="M718.05,628.13c-1.75-0.03-2.54-1.9-1.79-3.18c5.13-2.52,7.9-5.19,7.9-7.96
	c0-2.36-2.01-4.64-5.78-6.83c-0.93-1.29-0.13-3.3,1.67-3.33c31.22-0.62,50.68-1.5,50.68-2.47c0-1.13-26.11-2.13-66.38-2.75
	c-7.65-0.12-15.28-0.84-22.81-2.22c-35.47-6.46-90.15-10.6-151.51-10.6c-17.1,0-33.68,0.32-49.47,0.93l-2.19,0.36
	c-1.5,0.06-2.99,0.13-4.47,0.2c-19.31-0.83-40.57-1.28-62.9-1.28c-88.37,0-160,7.16-160,16c0,6.28,36.19,11.71,88.84,14.33
	c4.9,8.63,36.7,16.15,83.2,20.78c0.26,0.09,0.52,0.18,0.78,0.27c27.15,2.59,59.05,4.21,93.39,4.54c4.77,0.05,9.58,0.08,14.44,0.08
	c59.31,0,112.35-3.9,147.66-10.04c4.93-0.57,9.9-0.88,14.87-0.93c55.55-0.55,94-1.73,94-3.09
	C788.19,629.78,760.45,628.75,718.05,628.13z"/>
<path id="Helmet_Shadow" d="M789,398c0,0-105,127-371,95l53.38-73.66L688,348L789,398z"/>
<g id="Body">
	<path class="st1" d="M814.23,534.19l-5.78-11.97c0.03-0.45,0.05-0.91,0.05-1.37c0-13.57-14.11-26.07-37.85-36.09v8.33
		c-2.31-0.92-4.73-1.81-7.24-2.68v-3.88c-33.93-12.24-84.43-20-140.85-20c-49.29,0-94.08,5.93-127.23,15.58v13.52h0v-16.36
		c-33.97,10.79-55.03,25.79-55.03,42.37c0,2.61,0.53,5.19,1.54,7.71l-3.46,6.16c0,0-2.77,3.6,2.11,11.18
		c4.31,6.69,25.87,32.88,37.25,46.59c4.89,7.03,8.2,11.36,8.49,10.94c0.46-0.66-3.04-13.86-12.75-28.92
		c-4.53-8.09-9.94-18.8-13.19-26.72c9.07,5.74,62.34,32.56,171,32.46c111.05-0.11,160.41-34.87,165.83-39.6
		c-1.89,7.61-8.36,22.99-13.52,33.81c-8.48,15.48-11.55,28.95-11.15,29.62c0.25,0.42,3.14-4.04,7.41-11.27
		c9.92-14.14,28.73-41.14,32.49-48.01C816.63,537.79,814.23,534.19,814.23,534.19z"/>
	<path class="st2" d="M816.78,544.76c3.91,2.27-6.22,30.32-14.56,48.89c-11.33,21.09-13,37.54-12.04,38.11
		c0.61,0.36,4.73-5.91,10.61-15.9c14.52-20.23,41.95-58.78,46.98-68.15c5.69-10.62,0-13.59,0-13.59L811.1,507.1
		c-0.84-0.62-1.45-1.5-1.74-2.5c0-0.01-0.01-0.02-0.01-0.04c-0.09-0.32-0.15-0.64-0.17-0.97l-22.42,34.35l-0.06,0.14
		C805.44,534.72,816.78,544.76,816.78,544.76z"/>
	<path class="st2" d="M439.42,544.76c-3.91,2.27,6.22,30.32,14.56,48.89c11.33,21.09,13,37.54,12.04,38.11
		c-0.61,0.36-4.73-5.91-10.61-15.9c-14.52-20.23-41.95-58.78-46.98-68.15c-5.69-10.62,0-13.59,0-13.59l36.68-27.02
		c0.84-0.62,1.45-1.5,1.74-2.5c0-0.01,0.01-0.02,0.01-0.04c0.09-0.32,0.15-0.64,0.17-0.97l22.42,34.35l0.06,0.14
		C450.77,534.72,439.42,544.76,439.42,544.76z"/>
	<path class="st2" d="M810,500.57l11.2-16.22c1.27-1.84,1.53-4.23,0.7-6.32c-0.03-0.08-0.07-0.15-0.11-0.23
		c-0.02-0.05-0.03-0.11-0.05-0.16c-0.82-2.06-2.6-3.53-4.71-3.89l-17.12-2.91c-2.02-0.34-3.74-1.65-4.62-3.5
		c-0.01-0.03-0.03-0.06-0.04-0.08c-0.77-1.64-0.8-3.53-0.08-5.19l7.3-16.72c0.9-2.04,0.71-4.41-0.48-6.26
		c-0.15-0.24-0.32-0.46-0.49-0.67c-1.23-1.57-3.09-2.48-5.06-2.4l-16.38,0.6c-1.53,0.06-3.03-0.41-4.26-1.33l-0.08-0.06
		c-2.12-1.59-3.11-4.27-2.52-6.85l3.85-17.03c0.47-2.09-0.09-4.26-1.47-5.83c-0.2-0.3-0.42-0.59-0.68-0.86
		c-1.53-1.6-3.75-2.26-5.87-1.74l-8.69,2.14l-9.59,2.13c-1.04,0.23-2.13,0.09-3.08-0.39l-0.05-0.03c-1.6-0.81-2.58-2.47-2.52-4.26
		l0.65-19.35c0.08-2.23-0.96-4.35-2.74-5.58c-1.78-1.24-4.04-1.43-5.99-0.51l-16.74,7.96c-1.52,0.72-3.3,0.66-4.77-0.16l-0.14-0.08
		c-1.39-0.78-2.35-2.16-2.6-3.74l-2.99-19.17c-0.34-2.2-1.76-4.06-3.74-4.92c-1.97-0.86-4.24-0.58-5.97,0.73l-14.94,11.21
		c-1.34,1.01-3.09,1.31-4.7,0.8l-0.1-0.03c-1.55-0.49-2.79-1.68-3.34-3.21l-6.49-18.11c-0.75-2.1-2.48-3.64-4.59-4.07
		c-2.1-0.43-4.26,0.3-5.72,1.93l-12.63,14.13c-1.1,1.23-2.72,1.86-4.37,1.69l-0.09-0.01c-1.6-0.16-3.03-1.08-3.85-2.46l-9.79-16.5
		c-1.13-1.9-3.11-3.05-5.26-3.05c-2.14,0-4.13,1.15-5.25,3.05l-9.78,16.47c-0.83,1.41-2.29,2.33-3.91,2.5l-0.06,0.01
		c-1.64,0.17-3.27-0.46-4.37-1.69l-12.63-14.13c-1.46-1.63-3.63-2.35-5.72-1.93c-2.1,0.44-3.84,1.97-4.58,4.07l-6.5,18.14
		c-0.54,1.52-1.76,2.69-3.3,3.18l-0.15,0.05c-1.59,0.5-3.31,0.21-4.64-0.79l-14.96-11.23c-1.74-1.31-4-1.59-5.98-0.73
		c-1.97,0.85-3.39,2.72-3.73,4.92l-2.98,19.08c-0.26,1.63-1.25,3.06-2.69,3.86l-0.05,0.03c-1.48,0.83-3.27,0.89-4.81,0.16
		l-16.71-7.95c-1.95-0.93-4.22-0.74-5.99,0.51c-1.78,1.24-2.82,3.35-2.74,5.58l0.65,19.4c0.05,1.63-0.64,3.2-1.88,4.27l-0.07,0.06
		c-1.28,1.1-3.02,1.51-4.66,1.11l-17.92-4.41c-2.09-0.51-4.28,0.14-5.79,1.72c-1.52,1.58-2.14,3.86-1.65,6.04l4.27,18.92
		c0.36,1.58-0.02,3.24-1.02,4.51l-0.11,0.13c-1.04,1.31-2.64,2.05-4.31,1.99l-18.42-0.67c-2.13-0.06-4.16,1-5.35,2.86
		c-1.19,1.85-1.37,4.22-0.49,6.26l7.73,17.67c0.64,1.46,0.59,3.14-0.15,4.56l-0.15,0.3c-0.76,1.48-2.18,2.52-3.82,2.8l-18.16,3.08
		c-2.11,0.36-3.89,1.83-4.72,3.89c-0.82,2.07-0.55,4.42,0.7,6.23l12.12,17.55c-0.03,0.43-0.06,0.79-0.09,1.22l-4.47,4.75
		c0,0-6.04,7.63-2.78,13.34c-0.31,0.61-0.61,1.22-0.9,1.82c1.62,5.09,5.71,10.26,14.4,14.14c-0.07-0.06-0.14-0.11,0.01,0.01
		c0,0,50.14,23.13,121.79,32.66c62.94,8.37,142.49,6.25,219.24-31.27c20.84-10.68,23.44-23.23,23.24-29.52
		c1.24-0.39,2.14-0.78,2.64-1.18l-2.04-1.51c-0.41-0.8-0.94-1.81-1.35-2.61C809.16,502.32,809.45,501.37,810,500.57z"/>
</g>
<g id="Right_Claw">
	<path class="st2" d="M803.43,502.32c0,0,23.48-1.09,54.32-32.44l4.37-9.7c0,0,6.87-21.18,21.94-28.71c0,0,22.44-7.79,29.02-44.13
		c0,0,32.73,43.15-35.55,83.62c0,0-32.03,51.35-77.18,46.43L803.43,502.32z"/>
	<path class="st1" d="M884.32,431.55c0,0,22.37-8.43,28.76-44.21C913.08,387.34,908.93,430.67,884.32,431.55z"/>
	<g id="Sword">
		<polygon class="st3" points="816.56,186.84 809.05,275.48 861.5,375.51 897.29,363.19 877.04,252.08 		"/>
		<path class="st4" d="M879.23,359.57l-33.12-85.67l27.42,87.54c1.59,5.07-1.15,10.49-6.18,12.22l-0.81,0.28l2.16,6.26l25.05-8.62
			l-2.16-6.26l0,0C886.6,367.04,881.14,364.5,879.23,359.57z"/>
		<g>
			
				<ellipse transform="matrix(0.9455 -0.3255 0.3255 0.9455 -100.0536 321.3133)" class="st5" cx="910.12" cy="459.64" rx="16.6" ry="12.33"/>
			<path class="st4" d="M894.43,465.04c1.43,4.16,5.62,6.78,10.74,7.33c-11.82-11.1,0.03-17.85,0.03-17.85l-2.17-5.22
				C896.25,452.85,892.49,459.41,894.43,465.04z"/>
		</g>
		<path class="st6" d="M916.52,448.68c0,0,0.78,3.42-8.3,6.55s-9.87-0.29-9.87-0.29l-25.27-73.4l18.17-6.26L916.52,448.68z"/>
		<path class="st5" d="M906.98,372.86l-47.17,16.24c-2.29,0.79-4.79-0.43-5.58-2.72l-1.15-3.33c-0.79-2.29,0.43-4.79,2.72-5.58
			l47.17-16.24c2.29-0.79,4.79,0.43,5.58,2.72l1.15,3.33C910.49,369.57,909.27,372.07,906.98,372.86z"/>
	</g>
	<path class="st2" d="M884.4,431.34C883,403,893,383,893,383c-58,26-34.27,74.06-31.05,77.02l0.26-0.02l22-28L884.4,431.34z"/>
</g>
<path class="st2" d="M439.39,508.36c-0.29,0-0.58,0.02-0.87,0.04c-11.58-2.64-44.14-11.12-52.75-24.89c0,0,0.16-0.18,0.44-0.52H386
	l-17-8v-17.96c-1.32,1.4-20.38,22.17-2.9,28.24c0,0,6.72,25.25,71.24,45.4l0.05-0.19c0.65,0.12,1.31,0.19,2,0.19
	c6.1,0,11.04-5,11.04-11.16C450.43,513.36,445.48,508.36,439.39,508.36z"/>
<g id="Left_Claw">
	<path class="st2" d="M369,457l-0.03-0.04c-2.09-0.22-35.56-4.27-39.97-33.96c0,0-33.93,60.88,36.9,62.28L370,485l9-11L369,457z"/>
	<g>
		<path class="st2" d="M386,483h0.2c4.39-5.36,39.3-51.22-25.1-81.17l7.97,55.14c0,0-0.03,0.03-0.07,0.08l6,21.96L386,483z"/>
		<path class="st1" d="M360.81,401.42l7.91,56.25C368.72,457.67,376.63,429.55,360.81,401.42z"/>
	</g>
</g>
<g id="Helmet">
	<path class="st1" d="M730.59,414.7c4.17,2.74,8.19,5.96,13.01,7.24c4.82,1.28,10.82-0.06,13.06-4.52c1.35-2.69,1.11-5.98,2.59-8.6
		c1.93-3.41,5.88-4.51,9.74-5.83c0.14-0.05,0.28-0.1,0.42-0.15c-0.13,0.02-0.26,0.04-0.39,0.07l-8.69,2.14l-9.59,2.13
		c-1.04,0.23-2.13,0.09-3.08-0.39l-0.05-0.03c-1.6-0.81-2.58-2.47-2.52-4.26l0.65-19.35c0.08-2.23-0.96-4.35-2.74-5.58
		c-1.78-1.24-4.04-1.43-5.99-0.51l-16.74,7.96c-1.52,0.72-3.3,0.66-4.77-0.16l-0.14-0.08c-1.39-0.78-2.35-2.16-2.6-3.74l-1.8-11.5
		c-9.34,0.62-18.61,2.04-27.87,3.46c-23.47,3.61-46.94,7.23-70.41,10.84c-8.09,1.25-16.21,2.5-24.07,4.79
		c-9.36,2.73-18.23,6.91-27.05,11.07c-13.75,6.88-27.85,13.13-41.76,19.68c-7.24,3.41-14.48,6.82-21.72,10.24
		c-5.93,2.8-14.99,5.3-19.69,9.67c3.01,4.54,7.03,8.65,10.52,12.85c48.65-20.7,98.38-40.06,150.54-48.77
		C670.38,398.21,704.39,397.48,730.59,414.7z"/>
	<g>
		<path class="st7" d="M729.47,290.44c0,0,28.27-31.77,20.51-67.63s-28.38-66.19-28.38-66.19s55.05,17.02,64.68,73.19
			c9.63,56.17-8.33,87.01-21.86,101.38L729.47,290.44z"/>
		<path class="st8" d="M755,309c0,0-3-6-8-15c-2.44-4.4-2.56-7.99-2.04-10.51c0.64-1.37,1.22-2.74,1.77-4.11
			c0,0,0.01-0.01,0.01-0.01l0,0c13.35-33.24,1.47-63.9,1.47-63.9l0,0.01c0.65,2.41,1.25,4.85,1.78,7.32
			c7.76,35.86-20.51,67.63-20.51,67.63l2.96,3.45l1.63,0.84l-0.6,0.96L755,309z"/>
		<path class="st3" d="M717.54,298.08l9.38-11.07c0,0,15.4,5.94,28.66,20.84c13.26,14.9,15.93,27.82,15.93,27.82l-12.19,12.79
			L717.54,298.08z"/>
	</g>
	<g>
		<path class="st9" d="M420.58,467.87c0,0-26.04-80.27,40.39-148.6s148.48-88.5,208.84-60.85c60.35,27.65,93.3,61.42,107.91,118.84
			C777.71,377.27,601.52,326.92,420.58,467.87z"/>
		<path class="st10" d="M461,398c-0.98-40.2,8.62-80.41,74.05-132.87c-25.54,12.13-50.78,30.17-74.08,54.14
			c-66.43,68.33-40.39,148.6-40.39,148.6c24.71-19.25,49.34-34.92,73.43-47.65C478.51,424.17,461.6,422.74,461,398z"/>
		<path class="st3" d="M783,367c0,0-46.11-16.31-109.05-11.93c-1.92-13.93-7.95-41.07-32.9-74.81
			c-28.24-38.18-55.81-39.07-55.81-39.07s-35.48-0.51-41.87,11.08c0,0,33.29-2.97,61.19,36.75c20.61,29.34,27.91,57.85,30.32,70.76
			c0,0,0,0,0,0c-15.8,2.7-32.73,6.53-50.69,11.82C468.01,405.83,410,463,410,463l8,30c0,0,115-84,248-98c69.73-7.34,123,3,123,3
			L783,367z"/>
		<path class="st4" d="M597.83,296.97c17.65,25.13,25.54,49.65,28.96,64.29c2.73-0.52,5.43-1.02,8.09-1.47
			c-2.41-12.91-9.71-41.41-30.32-70.76c-27.9-39.72-61.19-36.75-61.19-36.75s-3.36,3.97-4.54,11.42
			C538.83,263.69,569.93,257.25,597.83,296.97z"/>
	</g>
	<g>
		<path class="st3" d="M453.23,382.64c-6.7,19.71-19.37,33.3-28.3,30.36c-1.62-0.53-8.79-2.08-8.79-2.08s-0.72-22.8,4.76-38.93
			c4.77-14.01,19.9-31.99,19.9-31.99s5.82,0.78,8.4,1.63C458.13,344.57,459.93,362.93,453.23,382.64z"/>
		
			<ellipse transform="matrix(0.3243 -0.946 0.946 0.3243 -65.7424 658.3611)" class="st4" cx="427.96" cy="375.2" rx="37.69" ry="17.02"/>
		<path class="st7" d="M436.91,346.19c0,0,6.03,8.97-1.62,30.85c-7.64,21.88-16.21,25.57-16.21,25.57s-59.73-27.57-68.43-73.58
			c-8.69-46.01,20.92-111.53,20.92-111.53s4.53,74.15,18.67,96.12C406.8,339.31,436.91,346.19,436.91,346.19z"/>
		<path class="st8" d="M422.4,400.09c2.18-2.11,5.21-5.84,8.4-12.24L434,381c-4.88,7.05-14.52,12.45-19.58,10.43
			c-2.16-1.16-4.23-2.33-6.25-3.52c-0.6-0.44-1-0.77-1.12-0.87l0.82,0.69c-46.61-27.54-57-63.01-58.61-84.25
			c-0.11,2.13-0.18,4.25-0.19,6.36c0,0.13,0,0.25,0,0.38c-0.01,2.04,0.04,4.07,0.14,6.07c0.01,0.19,0.02,0.37,0.03,0.56
			c0.05,0.85,0.1,1.69,0.17,2.53c0.01,0.16,0.02,0.32,0.04,0.48c0.08,0.96,0.17,1.91,0.28,2.86c0.02,0.18,0.04,0.36,0.07,0.54
			c0.09,0.77,0.19,1.53,0.3,2.29c0.04,0.25,0.07,0.5,0.11,0.75c0.14,0.92,0.29,1.83,0.46,2.74c8.69,46.01,68.43,73.58,68.43,73.58
			S420.38,402.04,422.4,400.09L422.4,400.09z"/>
	</g>
</g>
<g id="Beard">
	<path class="st11" d="M766.79,602.86c0,0-16.28-4.91-20.69,5.07S741,624,741,624c3.06,0.95,5.91,1.61,8.56,2.05L751,621l2.62,5.57
		c8.59,0.74,14.75-1.06,18.95-3.29L770,619l6.55,1.64c2.4-1.96,3.45-3.64,3.45-3.64C777,608,766.79,602.86,766.79,602.86z"/>
	<path class="st12" d="M766.79,602.86c0,0-0.92,4.39-8.79,6.14c-9,2-11.9-1.07-11.9-1.07l-3.49-14.22l20.69-5.07L766.79,602.86z"/>
	<path class="st11" d="M505.18,607.93c-4.4-9.99-20.69-5.07-20.69-5.07S474.28,608,471.28,617c0,0,1.76,2.8,5.93,5.4L482,620
		l-1.22,4.25c3.99,1.7,9.37,2.89,16.41,2.35l0.8-5.6l2.26,5.28c3.05-0.42,6.38-1.16,10.02-2.28
		C510.28,624,509.58,617.92,505.18,607.93z"/>
	<path class="st12" d="M484.49,602.86c0,0,0.92,4.39,8.79,6.14c9,2,11.9-1.07,11.9-1.07l3.49-14.22l-20.69-5.07L484.49,602.86z"/>
	<path class="st11" d="M818.3,513.45C818.3,513.45,818.3,513.45,818.3,513.45C818.3,513.45,818.3,513.45,818.3,513.45
		c-0.1-0.52-0.22-1.02-0.38-1.51c-0.01-0.02-0.01-0.04-0.02-0.06c-0.14-0.44-0.31-0.88-0.5-1.3c-0.03-0.06-0.05-0.12-0.08-0.18
		c-0.41-0.87-0.93-1.68-1.56-2.43c-0.06-0.08-0.13-0.15-0.19-0.22c-0.27-0.31-0.57-0.61-0.88-0.9c-0.06-0.05-0.11-0.11-0.17-0.17
		c-0.37-0.33-0.77-0.64-1.19-0.93c-0.09-0.06-0.18-0.11-0.27-0.17c-0.35-0.23-0.72-0.45-1.11-0.66c-0.13-0.07-0.26-0.14-0.4-0.21
		c-0.49-0.25-1-0.49-1.55-0.7c0,0-31,28-73,25s-98,7-98,7s-74-15-115-5s-86-27-86-27s-0.07,0.05-0.2,0.13c0,0,0,0-0.01,0
		C418,520,444,530,451,545s22.42,52.99,59.28,55c55,3,72-17,98-17H643c26,0,43,20,98,17c36.76-2.01,51.18-29.02,56.71-46.72
		c2.77-8.88,7.49-17.01,13.88-23.77C816.64,524.17,819.28,518.66,818.3,513.45z"/>
	<g>
		<path class="st13" d="M601.49,542.1c0,0-21.15,5.14-19.43,35.44c0,0,4.57-13.72,12.57-13.15c0,0-13,15.72,1.26,29.98
			C612.6,611.08,631.28,616,631.28,616s2.95-5.9,21.63-18.68c17.55-12.01,5.16-35.79-1.7-38.07c0,0,12.57-5.14,17.72,13.72
			c0,0,7.43-28.01-26.29-33.15C608.92,534.67,601.49,542.1,601.49,542.1z"/>
		<path class="st11" d="M651.38,559c-5.48,0.67-18.71,3.1-26-5c0,0-8,9-23,9c0,0-11.82,13.93-4.12,33.64
			c16.06,14.89,33.03,19.36,33.03,19.36s2.95-5.9,21.63-18.68C668.81,586.44,661.38,565,651.38,559z"/>
	</g>
	<g>
		<g>
			<path class="st13" d="M626.73,524.07c0,0-63.31-26.91-96.54,0s-39.57,15.83-39.57,15.83s1.58,22.16,25.32,18.99
				c0,0-23.74,31.65,6.33,64.89c0,0-7.91-55.39,36.4-63.31C585.57,555.67,629.9,565.22,626.73,524.07z"/>
			<path class="st11" d="M626.73,524.07c0,0-32.2-13.68-62.72-11.77c-5.61,0.67-28.39,6.66-38.39,20.66s-22,14-22,14s1,9,22,7
				c0,0-13,12-8,31c0,0,9-25,34-27c12.91-1.03,31.7-0.47,47.26-1.05C615.44,554.22,628.5,547.06,626.73,524.07z"/>
		</g>
		<g>
			<path class="st13" d="M624.85,524.07c0,0,63.31-26.91,96.54,0s39.57,15.83,39.57,15.83s-1.58,22.16-25.32,18.99
				c0,0,23.74,31.65-6.33,64.89c0,0,7.91-55.39-36.4-63.31C666.01,555.67,621.68,565.22,624.85,524.07z"/>
			<path class="st11" d="M624.85,524.07c0,0,32.2-13.68,62.72-11.77c5.61,0.67,28.39,6.66,38.39,20.66s22,14,22,14s-1,9-22,7
				c0,0,13,12,8,31c0,0-9-25-34-27c-12.91-1.03-31.7-0.47-47.26-1.05C636.14,554.22,623.08,547.06,624.85,524.07z"/>
		</g>
	</g>
</g>
<g id="Shield">
	<g>
		<ellipse class="st14" cx="383" cy="485.22" rx="113" ry="120.78"/>
		<ellipse class="st5" cx="387" cy="481.5" rx="109" ry="116.5"/>
	</g>
	<path class="st15" d="M397.56,365.55c-24.08,40.53-26.66,83.64-2.97,107.34c22.5,22.5,62.47,21.25,101.14,0.43
		C492.04,416.54,450.29,370.97,397.56,365.55z"/>
	<g>
		<ellipse class="st16" cx="385" cy="483.3" rx="83.55" ry="89.3"/>
		<ellipse class="st6" cx="387.96" cy="480.54" rx="80.59" ry="86.13"/>
	</g>
	<ellipse class="st5" cx="387.18" cy="480.5" rx="17.82" ry="19.04"/>
	<path class="st15" d="M393.59,462.75c-0.32,0.29-0.64,0.58-0.95,0.89c-5.47,5.47-7.05,12.75-3.54,16.26
		c3.37,3.37,10.21,2.04,15.59-2.9C403.55,470.45,399.27,465.09,393.59,462.75z"/>
</g>
<g id="Eyes">
	<g>
		<path class="st17" d="M678.12,438.81c-7.03,3.24-14.94,6.92-19.24,9.05c-5.66,2.8-12.74,3.26-17.39,3.19
			c-2.86,5.77-4.53,12.67-4.53,20.08c0,20.3,12.47,36.76,27.86,36.76s27.86-16.46,27.86-36.76
			C692.69,457.18,686.8,445.04,678.12,438.81z"/>
		<g>
			<ellipse cx="676.83" cy="471.19" rx="11.22" ry="15.48"/>
			<ellipse class="st17" cx="673.35" cy="459.85" rx="5.6" ry="7.72"/>
		</g>
		<path d="M676.22,432.52c-1.7,0.31-4.16,1.15-7.03,2.3c-7.68,3.09-18.31,8.45-25.31,12.1c-4.33,2.25-7.27,3.85-7.27,3.85
			s1.96,0.25,4.89,0.29c4.64,0.06,11.73-0.4,17.39-3.19c4.3-2.13,12.21-5.81,19.24-9.05c7.52-3.47,14.03-6.43,14.03-6.43
			S685.3,430.85,676.22,432.52z"/>
	</g>
	<g>
		<path class="st17" d="M575.98,438.81c7.03,3.24,14.94,6.92,19.24,9.05c5.66,2.8,12.74,3.26,17.39,3.19
			c2.86,5.77,4.53,12.67,4.53,20.08c0,20.3-12.47,36.76-27.86,36.76s-27.86-16.46-27.86-36.76
			C561.4,457.18,567.3,445.04,575.98,438.81z"/>
		<g>
			<ellipse cx="601.63" cy="471.19" rx="11.22" ry="15.48"/>
			<ellipse class="st17" cx="598.15" cy="459.85" rx="5.6" ry="7.72"/>
		</g>
		<path d="M577.88,432.52c1.7,0.31,4.16,1.15,7.03,2.3c7.68,3.09,18.31,8.45,25.31,12.1c4.33,2.25,7.27,3.85,7.27,3.85
			s-1.96,0.25-4.89,0.29c-4.64,0.06-11.73-0.4-17.39-3.19c-4.3-2.13-12.21-5.81-19.24-9.05c-7.52-3.47-14.03-6.43-14.03-6.43
			S568.8,430.85,577.88,432.52z"/>
	</g>
</g>
</svg>
